<?xml version="1.0" encoding="UTF-8" standalone="no" ?>
<!DOCTYPE svg PUBLIC "-//W3C//DTD SVG 1.1//EN" "http://www.w3.org/Graphics/SVG/1.1/DTD/svg11.dtd">
<svg xmlns="http://www.w3.org/2000/svg" xmlns:xlink="http://www.w3.org/1999/xlink" version="1.1" width="1080" height="1080" viewBox="0 0 1080 1080" xml:space="preserve">
<desc>Created with Fabric.js 5.2.4</desc>
<defs>
</defs>
<rect x="0" y="0" width="100%" height="100%" fill="transparent"></rect>
<g transform="matrix(1 0 0 1 540 540)" id="c2d1ce6f-e0ef-460f-b4b7-7e204e778322"  >
<rect style="stroke: none; stroke-width: 1; stroke-dasharray: none; stroke-linecap: butt; stroke-dashoffset: 0; stroke-linejoin: miter; stroke-miterlimit: 4; fill: rgb(255,255,255); fill-rule: nonzero; opacity: 1; visibility: hidden;" vector-effect="non-scaling-stroke"  x="-540" y="-540" rx="0" ry="0" width="1080" height="1080" />
</g>
<g transform="matrix(1 0 0 1 540 540)" id="32eb71a3-1c4f-4c4d-a174-b3da4021d653"  >
</g>
<g transform="matrix(0.84 0 0 0.84 540.56 544.56)" id="1ec2991e-3fef-423e-96c4-f4c478df633f"  >
<circle style="stroke: rgb(0,0,0); stroke-width: 0; stroke-dasharray: none; stroke-linecap: butt; stroke-dashoffset: 0; stroke-linejoin: miter; stroke-miterlimit: 4; fill: rgb(194,194,194); fill-rule: nonzero; opacity: 1;" vector-effect="non-scaling-stroke"  cx="0" cy="0" r="35" />
</g>
<g transform="matrix(1 0 0 1 540 555.95)"  >
<path style="stroke: none; stroke-width: 1; stroke-dasharray: none; stroke-linecap: butt; stroke-dashoffset: 0; stroke-linejoin: miter; stroke-miterlimit: 4; fill: rgb(4,7,10); fill-rule: nonzero; opacity: 1;" vector-effect="non-scaling-stroke"  transform=" translate(-36.01, -51.94)" d="M 42.73 47.24 C 41.699999999999996 46.52 39.809999999999995 45.99 39.39 44.690000000000005 C 39.26 44.28000000000001 39.230000000000004 41.53 39.32 41.07000000000001 C 39.39 40.70000000000001 39.95 40.36000000000001 40 39.82000000000001 C 40.09 38.870000000000005 39.3 38.120000000000005 38.41 37.99000000000001 C 37.69 37.89000000000001 33.949999999999996 37.89000000000001 33.419999999999995 38.12000000000001 C 33.01 37.70000000000001 32.57999999999999 38.45000000000001 32.42999999999999 38.84000000000001 C 32.10999999999999 39.66000000000001 32.29999999999999 40.59000000000001 33.019999999999996 41.110000000000014 C 33.099999999999994 42.280000000000015 33.05 43.430000000000014 32.86 44.58000000000001 L 33.01 44.70000000000001 C 32.39 46.06000000000001 29.889999999999997 46.69000000000001 28.619999999999997 47.78000000000001 C 24.569999999999997 51.27000000000001 26.9 57.99000000000001 26.29 62.730000000000004 C 26.39 63.6 27.08 64.12 27.8 64.51 C 31.35 66.46000000000001 41.15 66.51 44.55 64.25 C 45.199999999999996 63.82 45.62 63.24 45.769999999999996 62.45 C 45.269999999999996 57.580000000000005 47.44 50.52 42.739999999999995 47.24 Z M 36.02 40.66 C 35.34 41 34.63 39.88999999999999 35.43 39.65 C 36.24 39.41 36.6 40.36 36.02 40.66 Z" stroke-linecap="round" />
</g>
<g transform="matrix(1 0 0 1 541.39 529.94)"  >
<path style="stroke: none; stroke-width: 1; stroke-dasharray: none; stroke-linecap: butt; stroke-dashoffset: 0; stroke-linejoin: miter; stroke-miterlimit: 4; fill: rgb(5,121,220); fill-rule: nonzero; opacity: 1;" vector-effect="non-scaling-stroke"  transform=" translate(-37.4, -18.94)" d="M 45.75 25.57 C 45.57 26.75 44.35 28.28 43.41 28.990000000000002 C 41.58 30.360000000000003 39.29 30.6 37.31999999999999 31.67 C 37.78999999999999 29.490000000000002 37.67999999999999 27.040000000000003 35.879999999999995 25.5 C 36.10999999999999 27.41 36.10999999999999 29.43 35.38999999999999 31.25 C 35.31999999999999 31.42 35.169999999999995 32.01 34.919999999999995 31.8 C 34.85999999999999 31.75 34.339999999999996 30.7 34.14999999999999 30.44 C 32.82999999999999 28.62 30.72999999999999 26.94 29.819999999999993 24.900000000000002 C 28.639999999999993 22.26 28.609999999999992 18.560000000000002 30.529999999999994 16.310000000000002 C 30.519999999999992 18.070000000000004 31.359999999999992 19.950000000000003 32.519999999999996 21.250000000000004 C 32.699999999999996 21.460000000000004 33.58 22.430000000000003 33.81999999999999 22.210000000000004 C 32.64999999999999 19.170000000000005 32.099999999999994 16.380000000000003 33.89999999999999 13.450000000000005 C 35.31999999999999 11.130000000000004 38.42999999999999 9.320000000000004 37.10999999999999 6.0400000000000045 C 38.13999999999999 5.980000000000005 39.379999999999995 7.6200000000000045 39.64999999999999 8.500000000000004 C 40.85999999999999 12.490000000000004 37.919999999999995 15.500000000000004 37.65999999999999 19.400000000000006 C 37.569999999999986 20.820000000000007 37.94999999999999 22.890000000000008 38.889999999999986 23.990000000000006 L 38.889999999999986 21.870000000000005 C 38.889999999999986 21.420000000000005 39.44999999999999 19.580000000000005 39.649999999999984 19.060000000000006 C 40.55999999999998 16.710000000000004 42.58999999999998 14.740000000000006 42.52999999999999 12.070000000000006 C 44.539999999999985 14.000000000000005 45.149999999999984 17.060000000000006 44.569999999999986 19.720000000000006 C 43.94999999999999 22.550000000000004 41.62999999999999 24.610000000000007 40.95999999999999 27.420000000000005 C 42.37999999999999 26.760000000000005 43.80999999999999 25.690000000000005 44.719999999999985 24.400000000000006 C 44.999999999999986 24.000000000000007 45.179999999999986 23.440000000000005 45.43999999999998 23.070000000000007 C 45.52999999999999 22.94000000000001 45.43999999999998 22.83000000000001 45.759999999999984 22.900000000000006 C 45.66999999999998 23.730000000000004 45.87999999999998 24.780000000000005 45.759999999999984 25.570000000000007 Z" stroke-linecap="round" />
</g>
<g transform="matrix(1 0 0 1 536.02 555.9)"  >
<path style="stroke: none; stroke-width: 1; stroke-dasharray: none; stroke-linecap: butt; stroke-dashoffset: 0; stroke-linejoin: miter; stroke-miterlimit: 4; fill: rgb(5,121,220); fill-rule: nonzero; opacity: 1;" vector-effect="non-scaling-stroke"  transform=" translate(-32.03, -51.9)" d="M 30.81 62.04 C 30.669999999999998 62.51 28.529999999999998 62.24 28.509999999999998 61.46 C 28.61 58.7 28.279999999999998 55.71 28.479999999999997 52.99 C 28.639999999999997 50.75 29.779999999999998 49.24 31.509999999999998 47.940000000000005 C 32.64 47.09 34.14 46.690000000000005 34.36 45.040000000000006 C 34.47 44.27 33.9 41.11000000000001 35.24 41.57000000000001 C 35.74 41.74000000000001 35.65 44.370000000000005 35.61 44.92000000000001 C 35.36 48.48000000000001 32.589999999999996 48.16000000000001 31.3 50.34000000000001 C 31.23 50.46000000000001 30.810000000000002 51.430000000000014 30.810000000000002 51.49000000000001 L 30.810000000000002 62.040000000000006 Z" stroke-linecap="round" />
</g>
<g transform="matrix(1 0 0 1 546.76 560.81)"  >
<path style="stroke: none; stroke-width: 1; stroke-dasharray: none; stroke-linecap: butt; stroke-dashoffset: 0; stroke-linejoin: miter; stroke-miterlimit: 4; fill: rgb(5,121,220); fill-rule: nonzero; opacity: 1;" vector-effect="non-scaling-stroke"  transform=" translate(-42.77, -56.81)" d="M 42.19 52.03 C 42.349999999999994 51.51 43.21 51.730000000000004 43.29 52.71 C 43.53 55.410000000000004 43.1 58.47 43.269999999999996 61.21 C 43.129999999999995 62.14 42.17999999999999 61.86 42.17999999999999 61.63 L 42.17999999999999 52.040000000000006 Z" stroke-linecap="round" />
</g>
</svg>