<svg width="80" height="80" viewBox="0 0 80 80" fill="none" xmlns="http://www.w3.org/2000/svg">
<circle cx="40" cy="40" r="40" fill="#D9D9D9"/>
<path d="M49.3687 50.7353C47.9157 49.7304 45.2494 48.9907 44.6569 47.1763C44.4735 46.604 44.4312 42.7658 44.5581 42.1238C44.6569 41.6074 45.4469 41.1329 45.5174 40.3792C45.6444 39.0533 44.5299 38.0065 43.2744 37.8251C42.2586 37.6855 36.9825 37.6855 36.2348 38.0065C35.6564 37.4203 35.0498 38.4671 34.8382 39.0114C34.3868 40.1559 34.6548 41.4539 35.6705 42.1796C35.7834 43.8126 35.7129 45.4177 35.4448 47.0227L35.6564 47.1902C34.7818 49.0884 31.255 49.9677 29.4633 51.489C23.7499 56.36 27.0369 65.7391 26.1763 72.3547C26.3174 73.569 27.2908 74.2948 28.3065 74.8391C33.3146 77.5607 47.1398 77.6305 51.9362 74.4762C52.8532 73.876 53.4457 73.0665 53.6573 71.9639C52.952 65.1669 56.0132 55.3132 49.3828 50.7353H49.3687ZM39.9027 41.5516C38.9434 42.0261 37.9418 40.4769 39.0704 40.1419C40.2131 39.807 40.721 41.1329 39.9027 41.5516Z" fill="#04070A"/>
<path d="M53.6291 30.2603C53.3751 31.9072 51.654 34.0426 50.328 35.0336C47.7463 36.9457 44.5158 37.2807 41.7366 38.7741C42.3997 35.7314 42.2445 32.312 39.7052 30.1626C40.0296 32.8284 40.0296 35.6477 39.0139 38.1879C38.9152 38.4252 38.7035 39.2486 38.3509 38.9555C38.2662 38.8857 37.5326 37.4202 37.2646 37.0574C35.4024 34.5172 32.4399 32.1724 31.1562 29.3252C29.4915 25.6405 29.4492 20.4764 32.1578 17.3361C32.1437 19.7925 33.3287 22.4165 34.9651 24.2309C35.2191 24.524 36.4605 25.8778 36.7991 25.5707C35.1485 21.3278 34.3726 17.4338 36.9119 13.3444C38.9152 10.1064 43.3025 7.58014 41.4404 3.00224C42.8934 2.91849 44.6427 5.20745 45.0236 6.43566C46.7306 12.0045 42.5831 16.2056 42.2163 21.6488C42.0893 23.6307 42.6254 26.5198 43.9515 28.0551V25.0962C43.9515 24.4681 44.7415 21.9 45.0236 21.1743C46.3074 17.8944 49.1712 15.1448 49.0865 11.4183C51.9221 14.112 52.7826 18.3829 51.9644 22.0954C51.0897 26.0453 47.8169 28.9204 46.8717 32.8423C48.8749 31.9212 50.8922 30.4278 52.176 28.6273C52.571 28.069 52.8249 27.2874 53.1917 26.771C53.3187 26.5896 53.1917 26.4361 53.6432 26.5338C53.5162 27.6922 53.8125 29.1577 53.6432 30.2603H53.6291Z" fill="#0579DC"/>
<path d="M32.5528 71.3916C32.3553 72.0476 29.3363 71.6707 29.3081 70.5821C29.4492 66.73 28.9836 62.5568 29.2658 58.7605C29.4915 55.6341 31.0997 53.5266 33.5403 51.7122C35.1344 50.5259 37.2505 49.9676 37.5609 47.6647C37.716 46.59 36.9119 42.1796 38.8023 42.8216C39.5077 43.0589 39.3807 46.7295 39.3243 47.4972C38.9716 52.4659 35.0639 52.0193 33.244 55.0619C33.1453 55.2294 32.5528 56.5832 32.5528 56.667V71.3916Z" fill="#0579DC"/>
<path d="M48.6069 57.4207C48.8326 56.6949 50.0458 57.002 50.1587 58.3697C50.4973 62.1381 49.8906 66.409 50.1305 70.2332C49.933 71.5312 48.5928 71.1404 48.5928 70.8194V57.4346L48.6069 57.4207Z" fill="#0579DC"/>
</svg>
