<?xml version="1.0" encoding="UTF-8"?>
<svg id="Capa_1" xmlns="http://www.w3.org/2000/svg" version="1.1" viewBox="0 0 72 72">
  <!-- Generator: Adobe Illustrator 29.7.1, SVG Export Plug-In . SVG Version: 2.1.1 Build 8)  -->
  <defs>
    <style>
      .st0 {
        fill: #0579dc;
      }

      .st1 {
        fill: #04070a;
      }
    </style>
  </defs>
  <path class="st1" d="M42.73,47.24c-1.03-.72-2.92-1.25-3.34-2.55-.13-.41-.16-3.16-.07-3.62.07-.37.63-.71.68-1.25.09-.95-.7-1.7-1.59-1.83-.72-.1-4.46-.1-4.99.13-.41-.42-.84.33-.99.72-.32.82-.13,1.75.59,2.27.08,1.17.03,2.32-.16,3.47l.15.12c-.62,1.36-3.12,1.99-4.39,3.08-4.05,3.49-1.72,10.21-2.33,14.95.1.87.79,1.39,1.51,1.78,3.55,1.95,13.35,2,16.75-.26.65-.43,1.07-1.01,1.22-1.8-.5-4.87,1.67-11.93-3.03-15.21ZM36.02,40.66c-.68.34-1.39-.77-.59-1.01.81-.24,1.17.71.59,1.01Z"/>
  <path class="st0" d="M45.75,25.57c-.18,1.18-1.4,2.71-2.34,3.42-1.83,1.37-4.12,1.61-6.09,2.68.47-2.18.36-4.63-1.44-6.17.23,1.91.23,3.93-.49,5.75-.07.17-.22.76-.47.55-.06-.05-.58-1.1-.77-1.36-1.32-1.82-3.42-3.5-4.33-5.54-1.18-2.64-1.21-6.34.71-8.59-.01,1.76.83,3.64,1.99,4.94.18.21,1.06,1.18,1.3.96-1.17-3.04-1.72-5.83.08-8.76,1.42-2.32,4.53-4.13,3.21-7.41,1.03-.06,2.27,1.58,2.54,2.46,1.21,3.99-1.73,7-1.99,10.9-.09,1.42.29,3.49,1.23,4.59v-2.12c0-.45.56-2.29.76-2.81.91-2.35,2.94-4.32,2.88-6.99,2.01,1.93,2.62,4.99,2.04,7.65-.62,2.83-2.94,4.89-3.61,7.7,1.42-.66,2.85-1.73,3.76-3.02.28-.4.46-.96.72-1.33.09-.13,0-.24.32-.17-.09.83.12,1.88,0,2.67Z"/>
  <path class="st0" d="M30.81,62.04c-.14.47-2.28.2-2.3-.58.1-2.76-.23-5.75-.03-8.47.16-2.24,1.3-3.75,3.03-5.05,1.13-.85,2.63-1.25,2.85-2.9.11-.77-.46-3.93.88-3.47.5.17.41,2.8.37,3.35-.25,3.56-3.02,3.24-4.31,5.42-.07.12-.49,1.09-.49,1.15v10.55Z"/>
  <path class="st0" d="M42.19,52.03c.16-.52,1.02-.3,1.1.68.24,2.7-.19,5.76-.02,8.5-.14.93-1.09.65-1.09.42v-9.59Z"/>
</svg>